<?xml version="1.0" encoding="UTF-8"?><svg id="Layer_1" xmlns="http://www.w3.org/2000/svg" viewBox="0 0 1024 1024"><defs><style>.cls-1{fill:#fff;}</style></defs><path class="cls-1" d="m988,988H36V36c317.33,0,634.67,0,952,0v952Zm-198.25-92.64c7.54-5.44,14.72-11.14,22.43-15.99,6.43-4.04,6.66-8.6,4.59-15.32-9.85-32.05-23.06-62.67-38.39-92.42-4.35-8.44-8.99-16.74-13.49-25.11-.56.16-1.13.32-1.69.49,8.76,31.6,15.8,63.47,16.53,96.38-.73-2.5-1.17-5.07-1.72-7.61-.34-1.57-.84-3.11-1.27-4.66-1.39.39-2.77.79-3.28.93-3.11-15.39-5.93-30.75-9.38-45.97-2.39-10.53-5.75-20.84-8.4-31.32-.47-1.86.4-4.05.81-7.36,1.77,2.82,2.64,4.2,4.12,6.56-1.45-11.43-7.53-23.84-15.61-32.27,2.92,6.63,5.3,12.65,8.23,18.39,1.56,3.06,1.4,5.2-1.57,7.54-1.56-4.39-3.04-8.57-4.54-12.75-6.56-18.17-13.65-35.99-25.71-51.52-8.78-11.29-16.75-23.22-24.82-35.04-5.41-7.94-8.92-18.06-9.01-24.14,5.41,9.8,9.96,20.13,20.2,27.48-8.02-25.57-9.62-43.55-5.16-55.3,3.86,12.14,7.57,18.28,12.8,21.21-10.97-29.95-.2-50.15,18.78-66.49-1.87,3.65-3.48,6.78-5.61,10.95,16.28-10.69,31.47-20.67,47.26-31.03,25.41,21.32,56.88,23.59,89.61,20.83.29,1.84.56,3.12.69,4.41,1.54,15.23-2.31,29.71-5.99,44.25-2.46,9.72-6.67,18.06-15.8,23.18-1.12.63-1.96,1.77-2.94,2.67,2.98.63,5.49.56,7.85-.05,13.02-3.34,23.56-10.57,32.17-20.78,18.89-22.39,27.7-49.29,32.21-77.37,6.44-40.01-4.44-76.15-28.88-108.23-12.57-16.5-28.67-29.02-46.32-40.1-.57,1.71-1.02,2.96-1.39,4.23-7.14,24.23-20.84,42.73-44.71,53.05-13.43,5.8-26.42,12.63-39.61,18.99-1.09.52-2.2,1-4.15,1.88,3.21-6.63,8.62-8.53,13.83-11.07,6.62-3.23,13.16-6.87,19.1-11.2,3.86-2.81,6.17-7.68,9.9-10.74,6.52-5.33,10.54-12.23,14.28-19.48.87-1.69,2.38-3.13,2.95-4.89.81-2.49,2.09-5.64,1.21-7.65-.91-2.08-4.44-4.69-6.32-4.35-5.41.99-11.04,2.57-15.73,5.36-7.59,4.51-10.98,3.41-11.86-5.4-.32-3.26-.37-6.33-5.26-4.67,0-4.79-.07-9.05.02-13.31.16-8.06,2.67-11.05,10.47-13.46,3.97-1.23,7.83-2.86,11.63-4.57.97-.43,1.49-1.84,2.22-2.81-.17-.2-.35-.39-.52-.59-1.98,1.05-3.96,2.11-6.94,3.69,2.21-5.08,6.3-8.66,1.87-13.3-.28,1.35-.54,2.61-.8,3.86-.33-.04-.66-.08-.98-.12v-10.7c-1.78,4.35-3.03,7.38-4.59,11.19-1.48-6.51-2.69-11.82-3.9-17.12-.25,7.01.85,13.93-4.83,20.74-.99-4.82-1.75-8.55-2.51-12.27-.16.05-.32.11-.49.16-.55,5.37-1.09,10.73-1.64,16.1-.38-.06-.77-.13-1.15-.19-.53-1.3-1.06-2.59-1.57-3.83-1.14,1.51-2.1,2.78-3.39,4.48-1.26-5-2.28-9.05-3.3-13.09-.9,15.12-3,22.84-8.13,27.22.33-2.82.66-5.64,1.09-9.41-1.65,2.23-2.6,3.53-4.11,5.58-.31-2.33-.46-3.51-.52-3.97-.97,1.65-2.18,3.72-3.44,5.88-1.37-4.57-2.51-8.4-3.66-12.23-2.4,4.69.28,11.07-6.71,12.51-1.32-4.66-2.55-8.98-3.78-13.31-.24.06-.48.12-.72.18-.61,4.29-1.23,8.58-1.84,12.87l-1.24-.21c-2.47-6.61-4.93-13.23-7.4-19.84l-.78.28c.85,4.12,1.71,8.24,2.56,12.35-.31.07-.62.13-.93.2-2.52-4.73-5.04-9.46-7.56-14.2-.25.14-.5.28-.76.42.82,2.44,1.64,4.87,2.46,7.31-9.8-8.93-21.44-14.29-32.39-20.77l-.78,1.15c1.45,2.38,2.91,4.76,4.36,7.13-.32.27-.64.53-.97.8-16.03-12.45-33.02-23.31-52.48-32.46,8.49,6.48,15.94,12.17,23.39,17.86-.37.71-.75,1.42-1.12,2.13-1.44-.53-3.03-.82-4.3-1.62-12.76-8.16-25.42-16.48-38.22-24.57-3.51-2.22-7.38-3.85-11.08-5.75-.23.41-.47.82-.7,1.23,9.88,6.59,19.76,13.19,29.64,19.78-.32.51-.65,1.02-.97,1.53-9.81-1.49-16.33-9.83-25.54-12.73,4.57,3.66,9.14,7.32,13.71,10.98-.29.44-.58.88-.87,1.33-6.56-1.19-11.66-5.63-17.35-8.69-5.72-3.07-11.09-6.79-16.86-9.76-5.9-3.05-12.01-5.75-18.18-8.22-5.94-2.38-12.07-4.27-18.11-6.38,6.76,4.22,13.73,7.76,20.72,11.28,3.32,1.67,3.33,1.65,2.57,5.51-2.24-1.23-4.5-2.47-6.75-3.7-.34.43-.68.86-1.02,1.29,1.62.93,3.24,1.87,4.87,2.8l-.86,1.45c-7.03-1.19-14.06-2.37-21.58-3.64,1.16,1.32,2.06,2.34,2.96,3.37-.11.4-.21.8-.32,1.2-2.66-.3-5.33-.53-7.98-.93-7.16-1.07-14.73-4.41-21.41-.74-4.91,2.69-9.22,2.57-14.1,1.99-.95-.11-1.96.3-2.94.39-8.9.87-17.79,1.83-26.71,2.47-1.58.11-4.34-.8-4.72-1.89-2.92-8.3-9.05-13.25-16.51-17.02-.42-.21-.79-.67-1-1.1-1.55-3.23-4.29-3.56-7.51-3.63-14.12-.31-28.38.83-42.13-3.73-.91-.3-2.19-.53-2.94-.13-7.16,3.81-9.77-2.47-14.71-6.28,5.06-3.27,9.36-6.35,13.95-8.92,4.55-2.54,9.39-4.54,14.1-6.78-1.14-.13-2.1.12-3.06.35-15.05,3.72-30.02,7.08-45.86,5.45-5.97-.62-12.69,1.05-18.33,3.43-7.85,3.32-14.2-.75-21.13-2.19-.44-.09-.72-1.01-1.06-1.54-1.16-1.81-2.32-3.63-3.79-5.92.94-.99,2.18-2.29,3.32-3.49-6.94-1.4-13.63-2.74-20.08-4.04,1.01-.5,2.65-1.55,4.44-2.19,8.56-3.06,16.96-7.06,25.79-8.75,13.64-2.6,27.59-3.57,41.4-5.29,3.41-.43,5.13,1.11,6.07,4.93-3.61.66-6.98,1.43-10.4,1.84-3.18.38-4.12,1.45-1.56,4.02-2.28,1.21-4.23,2.16-6.09,3.26-1.67.99-3.25,2.14-4.87,3.22,16.8-5.77,33.62-9.37,50.99-10.31,8.5-.46,17.06-1.2,25.52-.65,5.35.35,10.76,2.35,15.77,4.49,11.31,4.82,22.27,10.46,33.59,15.24,6.82,2.88,14.06,4.76,21.12,7.09.22-.49.44-.98.66-1.46-15.29-7.4-30.13-15.5-43.36-26.1.19-.42.39-.85.58-1.27,31.95,6.38,63.9,12.76,95.86,19.14.11-.55.23-1.1.34-1.64-46.78-10.91-94.26-19.11-139.69-35.63,11,5.84,21.99,11.68,32.99,17.51-.19.52-.38,1.04-.57,1.56-1.54-.16-3.09-.24-4.62-.49-10.99-1.8-21.92-4.14-32.97-5.35-17.57-1.93-35.08-3.74-51.42-11.21-2.09-.95-4.42-1.7-6.69-1.86-11.12-.79-22.3-.86-33.36-2.11-12.67-1.43-25.23-3.86-37.84-5.81-3.14-.49-4.69-2.02-4-5.38.96-.36,1.88-.74,2.82-1.06,21.27-7.26,43.21-10.73,65.6-11.77,29.03-1.35,57.98-.13,86.6,4.85,9.76,1.7,19.08,5.94,28.9,9.12-4.57-9.33-15.31-11.76-23.46-18.6,6.45-.58,12.01-1.08,17.75-1.6,3.06,4.93,7.74,6.62,12.66,4.16-2.34-5.64-6.84-7.96-12.55-9.2-2.39-.52-4.43-2.65-6.63-4.05,1.38-1.57,2.75-3.13,4.2-4.79-7.97-5.6-16.24-11.72-24.86-17.32-2.98-1.93-6.76-3.51-10.23-3.64-11.73-.45-23.49-.17-35.24-.17-.33.2-.66.4-1,.61,1.76,1.06,3.52,2.12,5.28,3.17-.23.21-.46.43-.69.64-.7-.14-1.4-.28-2.61-.53,9.33,16.33,24.61,24.34,41.15,32.75-3.07,0-4.84.09-6.59-.01-13.3-.77-26.59-1.88-39.9-2.31-30.46-1-60.61,1.1-89.62,11.37-12.2,4.32-24.16,7.53-36.79,1.16,1.85,1.43,3.69,2.87,5.61,4.36-.88.44-1.53.76-2.18,1.08l-.36,1.5c9.26,3.56,18.51,7.12,27.02,10.4-12.78,1.85-26.25,3.8-39.72,5.75.07.47.14.95.21,1.42.82.43,1.64.86,2.66,1.39-6.53,4.77-15.5,6.81-16.95,16.89,18.56-5.87,29.47-6.37,39.59-2.5-13.85,12.58-28.45,25.23-42.32,38.63-11.78,11.38-21.21,25.24-36.79,32.43-6.32,2.91-12.18,6.85-18.13,10.51-17.02,10.48-34.19,20.8-47.66,35.98-6.9,7.78-12.33,16.36-14.2,27.87,17.35-12.74,33.98-24.95,50.61-37.16.5.51,1,1.03,1.5,1.54-21.66,28.79-43.33,57.57-64.99,86.36,6.74-3.46,12.89-7.41,18.92-11.54,14.83-10.16,29.51-20.54,44.45-30.53,4.21-2.82,9.1-4.62,13.67-6.89.21.38.43.77.64,1.15-.89,1.17-1.64,2.5-2.69,3.5-10.34,9.88-20.39,20.1-31.19,29.45-15.35,13.28-31.87,25.25-46.76,39.01-15.21,14.06-27.98,30.41-35.86,49.94-1.75,4.33-2.63,9.01-3.91,13.53.62.37,1.23.74,1.85,1.11,9.76-13.25,18.04-27.82,32.28-37.96-5.87,16.82-11.3,33.13-22.95,46.59-8.5,9.82-16.49,20.08-24.5,30.31-1.15,1.47-1.86,4-1.53,5.81,3.14,17.32,6.3,34.64,9.98,51.85,2.1,9.83,5.19,19.45,8.15,30.36,6.18-7,11.53-13.05,17.48-19.78-.46,2.19-.69,3.58-1.05,4.93-2.66,9.96-5.53,19.86-7.93,29.88-.69,2.88-1.06,6.5.06,9.06,8.51,19.47,16.36,39.33,26.4,58,32.86,61.11,77.03,112.74,132.31,154.89,62.41,47.58,132.1,78.34,209.42,91.62,28.12,4.83,56.52,6.23,85.07,6.14,30.08-.1,59.74-3.28,89.12-9.4,2.33-.49,5.19-1.94,6.38-3.84,7.23-11.53,14.22-23.23,20.9-35.08,2.76-4.9,4.57-10.34,6.81-15.53-.54-.27-1.08-.54-1.62-.8-5.6,5.83-11.2,11.65-16.67,17.34,0-7.39.02-14.8,0-22.22-.04-9.1,1.27-18.49-.54-27.23-2.11-10.23-6.98-19.88-10.6-29.81-2.22-6.08-4.33-12.2-6.52-18.3-.31-.88-.83-2.45-1.18-2.43-4.57.28-3.49-3.23-3.55-5.51-.19-6.32-.1-12.66,0-18.99.03-1.95.46-3.9.77-6.3-3.01,4.84-5.63,9.04-8.25,13.24-.58-.25-1.15-.51-1.73-.76,13.98-40.52,12.07-81.17.78-121.89.47-.11.93-.21,1.4-.32,2.66,6.08,5.32,12.16,7.98,18.23.29-.09.58-.18.86-.27-.85-4.88-1.7-9.76-2.55-14.64,6.34,8.81,11.59,17.98,16.84,27.16,9.14,16,13.45,33.64,17.08,51.45,5.02,24.59,7.11,49.37,4.73,74.49-1.17,12.36-1.35,24.82-1.97,37.24,1.19-.16,1.43-.37,1.47-.61,6.58-35.33,10.49-70.85,6.86-106.81-1.77-17.58-4.34-35.04-12.07-51.26-4.97-10.44-10.09-20.82-14.52-31.49-3.25-7.83-8.1-14.02-14.79-19.05-1.85-1.39-3.14-3.52-4.68-5.32.45-.43.91-.87,1.36-1.3,12.1,6.6,20.46,17.21,28.24,28.45.37-.25.74-.51,1.11-.76l-9.3-15.8c.56-.5,1.12-1.01,1.68-1.51,1.91,2.43,3.73,4.93,5.74,7.28,12.97,15.14,19.03,32.97,20.66,52.58.35,4.18,1.05,8.32,1.59,12.48.38,0,.76.02,1.15.02,1.43-2.64,2.86-5.28,4.29-7.92.46.08.93.17,1.39.25.37,4.12.75,8.24,1.17,12.82,1.57-1.75,2.67-2.96,4.7-5.22,1.2,6.19,2.14,11.03,3.17,16.34,1.46-1.67,2.34-2.69,4.19-4.82,1.54,7.12,3.01,12.95,4.03,18.86,1.13,6.52,1.15,13.3,2.86,19.65,4.92,18.26,7.22,36.57,3.25,55.27-1.85,8.71-4.04,17.34-6.07,26.01-.48.06-.97.11-1.45.17-3.04-4.39-6.08-8.79-9.12-13.18.67,12.85,3.59,25.58-2.96,37.42-.57-8.42-1.13-16.79-1.69-25.17-.66.01-1.33.03-1.99.04l-4.07,33.78c-.4-.06-.79-.12-1.19-.19-.77-3.93-1.54-7.87-2.3-11.8-2.32,13.1-7.18,24.52-15.44,34.97-6.71,8.48-11.73,18.28-17.97,28.23,18.23-2.48,73.91-21.09,82.16-27.23-1.83-5.12-3.81-10.23-5.43-15.46-.62-1.98-1.26-4.63-.45-6.26,3.92-7.96,1.82-15.9.83-23.93-.25-2.03.44-4.22.94-6.27.72-2.93,1.78-5.78,2.5-8.71,2.19-8.94-2.53-18.11.79-27.05.26-.7-.09-1.64-.2-2.46-1.11-8.23-2.29-16.45-3.28-24.69-.21-1.73.3-3.54.47-5.31.24-.02.47-.04.71-.06.84,2.51,1.68,5.02,2.52,7.54.28-.07.55-.14.83-.22-.21-2.12-.42-4.25-.71-7.1,1.47,1.78,2.36,2.87,3.24,3.94,2.73-4.06-4.98-7.56.54-12.62,3.01,8.37,5.71,15.91,8.42,23.45.45-.12.89-.24,1.34-.36-6.66-19.05-6.73-38.91-8.12-58.6,2.96,10.15,5.93,20.31,8.89,30.46.22-.06.44-.13.66-.19l-2.04-19.23c.4-.07.8-.14,1.19-.22.61,2.01,1.13,4.05,1.83,6.03,3.7,10.49,6.55,21.4,11.39,31.35,7.83,16.11,16.99,31.57,25.56,47.32,1.04,1.92,1.87,3.95,2.8,5.93.32-.12.64-.24.96-.36-1.52-7.86-3.04-15.72-4.57-23.58,10.99,14.21,15.35,31.01,19.89,47.67,4.74-1.59,6.13-4.35,5.87-8.64-.34-5.65-.08-11.33-.08-17,.64-.01,1.29-.03,1.93-.04.65,5.2,1.3,10.41,1.95,15.61l.61-.09v-10.88c.32-.1.63-.19.95-.29,1.99,3.01,3.98,6.02,6.35,9.61Zm-202.45-709.45c.23-.52.45-1.03.68-1.55,18.36,8.27,36.71,16.55,55.07,24.82.11-.15.21-.29.32-.44-3.47-2.67-6.93-5.34-10.4-8.01.24-.38.49-.76.73-1.14l34.77,20.23c.23-.37.46-.73.69-1.1-6.33-4.17-12.68-8.29-18.97-12.52-14-9.4-30.19-15.91-40.36-30.4-.03-.05-.42.15-.75.28.86,1.46,1.71,2.89,2.56,4.33-.2.13-.41.26-.61.39-3.69-3.23-7.38-6.47-11.08-9.7-.27.28-.55.56-.82.84,2.02,3.1,4.03,6.2,6.23,9.58-41.98-10.27-82.63-23.97-124.64-32.14,14.38,5.59,28.77,11.17,43.34,16.83-.57-4.31,2.29-1.6,3.4-1.1,6.51,2.95,12.74,6.58,19.36,9.22,21.62,8.64,41.46,20.4,60.52,33.61,1.32.92,2.7,1.76,4.04,2.64.26-.37.53-.74.79-1.11-8.29-7.85-16.58-15.71-24.87-23.56Zm153.32,77.18c-5.03-4.63-11.61-11.08-18.62-17.04-25.35-21.58-54.02-38.23-82.51-55.13-8.84-5.24-17.49-10.79-26.45-16.33,3.28,7.64,10.03,11.08,16.39,14.95,18.33,11.16,37.01,21.79,54.87,33.66,19.77,13.14,38.78,27.41,56.31,39.9Zm-307.97-112.12c-4.2-7.9-10.42-7.85-16.96-6.95,2.59,1.29,5.35,2.12,8.03,3.15,2.73,1.04,5.38,2.28,8.93,3.8Z"/><path d="m789.75,895.36c-2.37-3.59-4.36-6.6-6.35-9.61-.32.1-.63.19-.95.29v10.88l-.61.09c-.65-5.2-1.3-10.41-1.95-15.61-.64.01-1.29.03-1.93.04,0,5.67-.26,11.35.08,17,.26,4.28-1.13,7.05-5.87,8.64-4.54-16.66-8.9-33.46-19.89-47.67,1.52,7.86,3.04,15.72,4.57,23.58-.32.12-.64.24-.96.36-.93-1.98-1.75-4.02-2.8-5.93-8.56-15.75-17.72-31.22-25.56-47.32-4.84-9.94-7.69-20.86-11.39-31.35-.7-1.98-1.22-4.02-1.83-6.03-.4.07-.8.14-1.19.22l2.04,19.23c-.22.06-.44.13-.66.19-2.96-10.15-5.93-20.31-8.89-30.46,1.39,19.69,1.47,39.55,8.12,58.6-.45.12-.89.24-1.34.36-2.71-7.54-5.42-15.08-8.42-23.45-5.52,5.06,2.19,8.56-.54,12.62-.88-1.07-1.78-2.16-3.24-3.94.28,2.85.5,4.97.71,7.1-.28.07-.55.14-.83.22-.84-2.51-1.68-5.02-2.52-7.54-.24.02-.47.04-.71.06-.18,1.77-.68,3.58-.47,5.31.99,8.24,2.17,16.46,3.28,24.69.11.82.46,1.76.2,2.46-3.32,8.94,1.4,18.11-.79,27.05-.72,2.93-1.78,5.78-2.5,8.71-.51,2.06-1.19,4.25-.94,6.27.99,8.03,3.09,15.97-.83,23.93-.81,1.64-.17,4.28.45,6.26,1.63,5.22,3.61,10.34,5.43,15.46-8.25,6.14-63.94,24.75-82.16,27.23,6.23-9.95,11.26-19.76,17.97-28.23,8.26-10.44,13.12-21.87,15.44-34.97.77,3.93,1.54,7.87,2.3,11.8.4.06.79.12,1.19.19l4.07-33.78c.66-.01,1.33-.03,1.99-.04.56,8.38,1.13,16.75,1.69,25.17,6.55-11.84,3.63-24.57,2.96-37.42,3.04,4.39,6.08,8.79,9.12,13.18.48-.06.97-.11,1.45-.17,2.03-8.67,4.22-17.3,6.07-26.01,3.97-18.7,1.67-37.01-3.25-55.27-1.71-6.34-1.74-13.12-2.86-19.65-1.02-5.91-2.49-11.75-4.03-18.86-1.84,2.12-2.73,3.14-4.19,4.82-1.03-5.3-1.97-10.15-3.17-16.34-2.03,2.26-3.13,3.47-4.7,5.22-.42-4.58-.79-8.7-1.17-12.82-.46-.08-.93-.17-1.39-.25-1.43,2.64-2.86,5.28-4.29,7.92-.38,0-.76-.02-1.15-.02-.54-4.16-1.25-8.31-1.59-12.48-1.63-19.6-7.68-37.43-20.66-52.58-2.01-2.34-3.83-4.85-5.74-7.28-.56.5-1.12,1.01-1.68,1.51l9.3,15.8c-.37.25-.74.51-1.11.76-7.78-11.24-16.14-21.84-28.24-28.45-.45.43-.91.87-1.36,1.3,1.54,1.79,2.83,3.93,4.68,5.32,6.69,5.03,11.54,11.22,14.79,19.05,4.43,10.67,9.55,21.06,14.52,31.49,7.73,16.23,10.3,33.68,12.07,51.26,3.63,35.96-.28,71.48-6.86,106.81-.05.24-.28.45-1.47.61.63-12.41.81-24.87,1.97-37.24,2.38-25.12.28-49.9-4.73-74.49-3.63-17.81-7.94-35.44-17.08-51.45-5.24-9.18-10.5-18.35-16.84-27.16.85,4.88,1.7,9.76,2.55,14.64-.29.09-.58.18-.86.27-2.66-6.08-5.32-12.16-7.98-18.23-.47.11-.93.21-1.4.32,11.29,40.72,13.21,81.37-.78,121.89.58.25,1.15.51,1.73.76,2.62-4.2,5.24-8.41,8.25-13.24-.31,2.41-.74,4.35-.77,6.3-.1,6.33-.19,12.66,0,18.99.07,2.29-1.02,5.79,3.55,5.51.35-.02.86,1.55,1.18,2.43,2.19,6.09,4.3,12.21,6.52,18.3,3.62,9.92,8.48,19.58,10.6,29.81,1.8,8.74.5,18.13.54,27.23.03,7.41,0,14.83,0,22.22,5.47-5.69,11.07-11.52,16.67-17.34.54.27,1.08.54,1.62.8-2.24,5.19-4.05,10.63-6.81,15.53-6.68,11.86-13.68,23.55-20.9,35.08-1.19,1.9-4.05,3.35-6.38,3.84-29.38,6.12-59.04,9.3-89.12,9.4-28.56.1-56.95-1.3-85.07-6.14-77.32-13.29-147.01-44.04-209.42-91.62-55.28-42.15-99.45-93.78-132.31-154.89-10.04-18.67-17.89-38.53-26.4-58-1.12-2.57-.76-6.18-.06-9.06,2.41-10.02,5.27-19.93,7.93-29.88.36-1.35.59-2.74,1.05-4.93-5.95,6.74-11.3,12.79-17.48,19.78-2.97-10.91-6.05-20.53-8.15-30.36-3.68-17.21-6.84-34.53-9.98-51.85-.33-1.81.38-4.34,1.53-5.81,8.01-10.23,16-20.49,24.5-30.31,11.65-13.45,17.08-29.77,22.95-46.59-14.24,10.14-22.52,24.71-32.28,37.96-.62-.37-1.23-.74-1.85-1.11,1.28-4.52,2.16-9.2,3.91-13.53,7.89-19.53,20.65-35.88,35.86-49.94,14.88-13.76,31.41-25.72,46.76-39.01,10.8-9.35,20.85-19.57,31.19-29.45,1.05-1.01,1.8-2.33,2.69-3.5-.21-.38-.43-.77-.64-1.15-4.58,2.27-9.46,4.07-13.67,6.89-14.94,10-29.62,20.37-44.45,30.53-6.03,4.13-12.18,8.08-18.92,11.54,21.66-28.79,43.33-57.57,64.99-86.36-.5-.51-1-1.03-1.5-1.54-16.63,12.21-33.26,24.42-50.61,37.16,1.86-11.51,7.3-20.09,14.2-27.87,13.46-15.18,30.63-25.5,47.66-35.98,5.95-3.66,11.82-7.59,18.13-10.51,15.57-7.19,25-21.05,36.79-32.43,13.87-13.4,28.47-26.05,42.32-38.63-10.13-3.87-21.03-3.36-39.59,2.5,1.45-10.08,10.42-12.12,16.95-16.89-1.02-.53-1.84-.96-2.66-1.39-.07-.47-.14-.95-.21-1.42,13.47-1.95,26.94-3.9,39.72-5.75-8.51-3.27-17.77-6.83-27.02-10.4l.36-1.5c.65-.32,1.3-.65,2.18-1.08-1.92-1.49-3.77-2.93-5.61-4.36,12.63,6.37,24.59,3.16,36.79-1.16,29.01-10.28,59.16-12.37,89.62-11.37,13.31.44,26.6,1.54,39.9,2.31,1.75.1,3.51.01,6.59.01-16.54-8.41-31.82-16.42-41.15-32.75,1.21.25,1.91.39,2.61.53.23-.21.46-.43.69-.64-1.76-1.06-3.52-2.12-5.28-3.17.33-.2.66-.4,1-.61,11.75,0,23.51-.28,35.24.17,3.47.13,7.25,1.71,10.23,3.64,8.61,5.6,16.89,11.71,24.86,17.32-1.45,1.65-2.83,3.22-4.2,4.79,2.2,1.4,4.24,3.53,6.63,4.05,5.7,1.24,10.2,3.56,12.55,9.2-4.92,2.46-9.6.77-12.66-4.16-5.74.52-11.3,1.02-17.75,1.6,8.15,6.85,18.88,9.27,23.46,18.6-9.81-3.17-19.13-7.42-28.9-9.12-28.62-4.98-57.56-6.19-86.6-4.85-22.38,1.04-44.33,4.51-65.6,11.77-.94.32-1.86.7-2.82,1.06-.69,3.36.86,4.89,4,5.38,12.61,1.95,25.17,4.38,37.84,5.81,11.06,1.25,22.25,1.32,33.36,2.11,2.27.16,4.6.91,6.69,1.86,16.34,7.47,33.85,9.28,51.42,11.21,11.05,1.22,21.98,3.55,32.97,5.35,1.53.25,3.08.33,4.62.49.19-.52.38-1.04.57-1.56-11-5.84-21.99-11.68-32.99-17.51,45.43,16.52,92.91,24.73,139.69,35.63-.11.55-.23,1.1-.34,1.64-31.95-6.38-63.9-12.76-95.86-19.14-.19.42-.39.85-.58,1.27,13.23,10.59,28.07,18.7,43.36,26.1-.22.49-.44.98-.66,1.46-7.05-2.33-14.29-4.22-21.12-7.09-11.32-4.78-22.28-10.42-33.59-15.24-5.01-2.14-10.43-4.14-15.77-4.49-8.46-.55-17.02.19-25.52.65-17.37.94-34.18,4.54-50.99,10.31,1.62-1.08,3.19-2.23,4.87-3.22,1.86-1.1,3.81-2.05,6.09-3.26-2.56-2.56-1.63-3.64,1.56-4.02,3.41-.41,6.79-1.18,10.4-1.84-.94-3.82-2.67-5.35-6.07-4.93-13.81,1.73-27.76,2.69-41.4,5.29-8.83,1.69-17.23,5.69-25.79,8.75-1.79.64-3.43,1.68-4.44,2.19,6.45,1.3,13.14,2.64,20.08,4.04-1.14,1.2-2.38,2.5-3.32,3.49,1.47,2.29,2.63,4.1,3.79,5.92.35.54.62,1.45,1.06,1.54,6.93,1.44,13.27,5.51,21.13,2.19,5.64-2.38,12.36-4.05,18.33-3.43,15.84,1.63,30.81-1.72,45.86-5.45.96-.24,1.93-.49,3.06-.35-4.71,2.24-9.55,4.24-14.1,6.78-4.59,2.56-8.89,5.65-13.95,8.92,4.94,3.82,7.55,10.09,14.71,6.28.75-.4,2.03-.17,2.94.13,13.75,4.56,28.01,3.43,42.13,3.73,3.22.07,5.96.4,7.51,3.63.21.43.58.89,1,1.1,7.46,3.77,13.59,8.73,16.51,17.02.38,1.09,3.14,2,4.72,1.89,8.92-.63,17.81-1.6,26.71-2.47.99-.1,1.99-.5,2.94-.39,4.88.58,9.19.71,14.1-1.99,6.69-3.67,14.25-.33,21.41.74,2.65.4,5.32.62,7.98.93.11-.4.21-.8.32-1.2-.9-1.02-1.8-2.05-2.96-3.37,7.51,1.27,14.55,2.45,21.58,3.64l.86-1.45c-1.62-.93-3.24-1.87-4.87-2.8.34-.43.68-.86,1.02-1.29,2.25,1.24,4.51,2.47,6.75,3.7.76-3.86.75-3.84-2.57-5.51-6.98-3.52-13.96-7.06-20.72-11.28,6.05,2.11,12.18,4,18.11,6.38,6.17,2.47,12.28,5.17,18.18,8.22,5.76,2.98,11.14,6.69,16.86,9.76,5.69,3.06,10.8,7.5,17.35,8.69.29-.44.58-.88.87-1.33-4.57-3.66-9.14-7.32-13.71-10.98,9.21,2.9,15.73,11.24,25.54,12.73.32-.51.65-1.02.97-1.53-9.88-6.59-19.76-13.19-29.64-19.78.23-.41.47-.82.7-1.23,3.7,1.9,7.58,3.54,11.08,5.75,12.8,8.1,25.46,16.42,38.22,24.57,1.26.81,2.86,1.09,4.3,1.62.37-.71.75-1.42,1.12-2.13-7.45-5.69-14.9-11.38-23.39-17.86,19.46,9.15,36.45,20.01,52.48,32.46.32-.27.64-.53.97-.8-1.45-2.38-2.91-4.76-4.36-7.13l.78-1.15c10.95,6.48,22.59,11.84,32.39,20.77-.82-2.44-1.64-4.87-2.46-7.31.25-.14.5-.28.76-.42,2.52,4.73,5.04,9.46,7.56,14.2.31-.07.62-.13.93-.2-.85-4.12-1.71-8.24-2.56-12.35l.78-.28c2.47,6.61,4.93,13.23,7.4,19.84l1.24.21c.61-4.29,1.23-8.58,1.84-12.87.24-.06.48-.12.72-.18,1.23,4.33,2.46,8.65,3.78,13.31,6.98-1.44,4.3-7.82,6.71-12.51,1.15,3.83,2.29,7.66,3.66,12.23,1.27-2.16,2.48-4.23,3.44-5.88.06.46.22,1.64.52,3.97,1.51-2.05,2.47-3.35,4.11-5.58-.44,3.77-.77,6.59-1.09,9.41,5.13-4.38,7.23-12.1,8.13-27.22,1.02,4.04,2.04,8.09,3.3,13.09,1.29-1.7,2.24-2.97,3.39-4.48.51,1.24,1.04,2.53,1.57,3.83.38.06.77.13,1.15.19.55-5.37,1.09-10.73,1.64-16.1.16-.05.32-.11.49-.16.76,3.73,1.52,7.45,2.51,12.27,5.68-6.82,4.58-13.74,4.83-20.74,1.21,5.3,2.42,10.61,3.9,17.12,1.56-3.81,2.8-6.84,4.59-11.19v10.7c.33.04.66.08.98.12.26-1.25.52-2.51.8-3.86,4.43,4.64.34,8.22-1.87,13.3,2.98-1.58,4.96-2.63,6.94-3.69.17.2.35.39.52.59-.73.96-1.26,2.37-2.22,2.81-3.8,1.71-7.66,3.34-11.63,4.57-7.8,2.41-10.31,5.4-10.47,13.46-.09,4.26-.02,8.52-.02,13.31,4.9-1.67,4.94,1.41,5.26,4.67.87,8.81,4.27,9.91,11.86,5.4,4.69-2.79,10.32-4.37,15.73-5.36,1.88-.34,5.42,2.27,6.32,4.35.88,2.01-.4,5.16-1.21,7.65-.57,1.76-2.08,3.19-2.95,4.89-3.73,7.25-7.75,14.15-14.28,19.48-3.73,3.05-6.04,7.92-9.9,10.74-5.94,4.33-12.48,7.97-19.1,11.2-5.21,2.54-10.62,4.44-13.83,11.07,1.95-.88,3.06-1.36,4.15-1.88,13.19-6.36,26.18-13.18,39.61-18.99,23.87-10.31,37.58-28.82,44.71-53.05.37-1.27.82-2.51,1.39-4.23,17.66,11.08,33.75,23.6,46.32,40.1,24.44,32.08,35.32,68.23,28.88,108.23-4.52,28.08-13.32,54.98-32.21,77.37-8.61,10.2-19.15,17.44-32.17,20.78-2.37.61-4.87.68-7.85.05.97-.9,1.81-2.04,2.94-2.67,9.13-5.12,13.34-13.46,15.8-23.18,3.68-14.54,7.53-29.02,5.99-44.25-.13-1.29-.4-2.56-.69-4.41-32.73,2.77-64.19.49-89.61-20.83-15.78,10.36-30.97,20.34-47.26,31.03,2.14-4.17,3.74-7.3,5.61-10.95-18.98,16.34-29.75,36.54-18.78,66.49-5.23-2.93-8.94-9.07-12.8-21.21-4.46,11.76-2.85,29.73,5.16,55.3-10.25-7.34-14.79-17.67-20.2-27.48.09,6.07,3.6,16.2,9.01,24.14,8.07,11.82,16.04,23.75,24.82,35.04,12.06,15.52,19.16,33.34,25.71,51.52,1.51,4.17,2.98,8.36,4.54,12.75,2.97-2.34,3.13-4.48,1.57-7.54-2.92-5.74-5.3-11.76-8.23-18.39,8.08,8.43,14.16,20.85,15.61,32.27-1.48-2.36-2.35-3.74-4.12-6.56-.41,3.31-1.28,5.51-.81,7.36,2.65,10.48,6.01,20.79,8.4,31.32,3.45,15.22,6.27,30.58,9.38,45.97.51-.14,1.89-.54,3.28-.93.43,1.55.94,3.09,1.27,4.66.55,2.54.99,5.11,1.72,7.61-.74-32.91-7.78-64.78-16.53-96.38.56-.16,1.13-.32,1.69-.49,4.51,8.36,9.14,16.66,13.49,25.11,15.33,29.75,28.53,60.37,38.39,92.42,2.07,6.72,1.84,11.28-4.59,15.32-7.71,4.85-14.89,10.56-22.43,15.99Zm-53.57-487.57c-2.66,2.51-5.32,5.02-8.01,7.55,4.17,2,8.8-1.04,10.74-7.05-.98-.12-1.94-.23-2.89-.34l9.47-8.66-.88-1.33c-2.25,1.09-4.49,2.17-6.74,3.26,1.56-1.82,3.12-3.64,4.67-5.46-.31-.48-.62-.96-.93-1.44-7.72,4.56-15.44,9.12-23.16,13.67.33.74.65,1.48.98,2.23,3.96-1.68,7.92-3.36,11.88-5.05-.22,1.02-.43,2.05-.65,3.07,1.84-.16,3.68-.31,5.51-.46Zm-9.29-11.33l-2.22,3.18c.35.29.7.59,1.06.88,3.77-3.02,7.55-6.05,11.32-9.07-.44-.54-.87-1.09-1.31-1.63-1.97,1.57-3.94,3.13-5.92,4.7.44-.87.87-1.74,1.8-3.58-8.25,2.92-14.29,6.75-19.04,12.34.36.52.72,1.03,1.08,1.55,4.41-2.79,8.82-5.57,13.24-8.36Zm-58.57,26.4c-7.88,3.1-15.77,6.2-23.65,9.29-.07.15-.1.4-.21.44-6.38,2.5-12.72,5.14-19.2,7.35-1.31.45-3.16-.92-4.8-1.12-1.42-.17-2.91,0-4.34.23-4.27.69-8.52,1.48-12.77,2.23-.08-.35-.16-.71-.24-1.06,2.43-1.09,4.85-2.17,8.39-3.76-3.16,0-5.23,0-7.31,0-3.81-.01-7.67.39-11.41-.12-13.25-1.81-25.93-5.47-37.72-12.05-11.89-6.63-24-12.87-35.88-19.53-3.07-1.72-5.61-4.37-8.39-6.6,16.77,10.22,33.95,19.18,52.09,24.38-24.12-22.61-48.59-45.54-73.06-68.47l-.63,1.35c-2.88-.67-5.9-.99-8.61-2.08-4.17-1.66-7.99-4.3-12.24-5.59-1.98-.6-5.37.3-6.74,1.79-1.08,1.18-.9,4.92.2,6.44,2.93,3.99,6.6,7.45,10.09,11.01,6.18,6.3,12.44,12.52,18.67,18.77-5-2.18-9.08-5.5-13.58-8.1-5.12-2.96-10.45-5.77-16-7.77-10.09-3.65-20.33-6.96-30.68-9.79-4.76-1.3-5.67.46-3.82,5.09,1.34,3.37,3.69,7.11,3.15,10.27-.63,3.68.86,5.3,2.9,7.11,4.6,4.09,9.35,8.03,14.06,12,1.79,1.5,3.65,2.91,5.49,4.36-2.65-.35-4.79-1.28-6.69-2.56-9.53-6.41-18.96-12.98-28.53-19.34-1.7-1.13-3.87-2.1-5.86-2.15-5.73-.15-11.48.17-17.21.39-.91.03-1.81.46-3.66.96,1.65,2.09,2.7,3.92,4.21,5.23,3.9,3.38,8.02,6.51,12.02,9.77,15.56,12.69,34.24,19.79,51.82,28.86,6.01,3.1,11.92,6.56,18.25,8.81,5.57,1.98,11.66,2.52,17.54,3.62.73.14,2.06.11,2.24-.27,2.38-4.81,6.57-4.08,10.49-3.29,9.56,1.93,19.05,4.19,28.58,6.25,11.38,2.46,22.81,4.7,34.16,7.3,22.91,5.26,45.51,4.81,67.8-3.14,1.09-.39,2.26-.53,3.4-.79-7.08,6.24-15.8,7.7-24.44,9.1-8.54,1.38-17.16,2.26-26.06,3.4,3.95.9,7.7,1.74,11.16,2.53-1.79.12-3.89.26-6,.4.04.46.07.93.11,1.39,13.94-.75,27.87-1.81,41.82-2.16,13.1-.33,26.21-.02,39.32.26,6.41.14,12.79.96,19.2,1.24,5.39.24,11.09-.97,16.13.4,12.9,3.5,24.69.06,36.54-4.05.97-.33,1.74-1.23,3.12-2.24-2.23-.69-3.76-1.17-6.68-2.08,5.79-2.69,10.32-4.8,14.85-6.91-7.34-.62-14.55,3.49-22.52-.72-.91.35-2.83,1.09-5.27,2.04.96-1.91,1.56-3.11,2.57-5.11-3.27,1.32-5.62,2.27-7.14,2.88-.39-2.09-.22-4.09-1.14-5.16-.67-.79-2.94-.88-4.18-.42-4.5,1.67-8.87,3.69-13.29,5.58l-.5-1.14,5.36-3.2c-.2-.54-.39-1.07-.59-1.61-3.6.62-7.2,1.23-11.79,2.02,2.13-1.48,3.43-2.39,4.74-3.31.09-.55.18-1.1.27-1.64-7.33,3.7-9.46-3.32-14.03-5.34.58-.86,1.18-1.76,2.14-3.18-4.67.68-8.72,1.27-12.76,1.85l.04.05-.22.11c-.84-.2-1.68-.4-2.51-.6,2.57-2.05,5.13-4.1,7.7-6.15-.37-.55-.74-1.11-1.1-1.66-3.02,1.16-6.09,2.19-9.03,3.51-2.77,1.24-5.41,2.79-8.11,4.2Zm-313.5,229.05s-.12-.11-.12-.11c-10.58,14.08-21.16,28.16-31.33,41.69.96-7.85,3.9-16.49,2.51-25.7-3.59,4.2-6.07,8.82-9.03,13.1-1.25,1.81-3.47,4.08-5.32,4.15-6.38.25-8.39,4.43-10.08,9.36-.7,2.04-1.67,3.99-2.38,6.03-8.99,25.87-15.19,52.11-10.02,79.73,1.45,7.75,3.34,15.42,5.02,23.13.34-.06.68-.11,1.02-.17.45-7.25.9-14.5,1.34-21.75.43,13.87,4.37,26.36,13.34,36.71,3.17-7.87,6.21-15.53,9.33-23.15,9.77-23.85,19.43-47.75,29.48-71.49,2.08-4.91,5.01-9.79,8.65-13.64,11.02-11.67,24.88-19.29,39.51-25.53,5.77-2.46,6.34-4.39,2.03-8.12-.22-.19-.3-.56-.46-.88.9-.98,1.81-1.96,2.84-3.08-2.52-1.15-4.61-2.11-6.7-3.07,0-.49.01-.98.02-1.47,6.27-2.14,12.54-4.27,19.75-6.72-2.97-1.82-4.5-2.76-7.28-4.47,5.94-.98,10.36-1.71,14.78-2.44.02-.47.05-.95.07-1.42-2.89-1.04-5.87-1.9-8.64-3.2-1.73-.82-3.14-2.31-4.7-3.5,1.69-1.14,3.25-2.72,5.11-3.31,3.5-1.1,7.17-1.62,10.78-2.39-.05-.28-.11-.57-.16-.85-2.27-.68-4.54-1.36-7.7-2.3,2.18-.89,3.3-1.34,5.17-2.1-1.75-.65-2.69-1-4.59-1.7,2.63-.17,4.21-.28,5.78-.38-29.95-4.35-62.65,4.91-72.97,20.7,1.93-.65,3.44-1.15,4.96-1.66Zm391.48-157.11c2.38-8.53-.92-15.77-10.01-19.5-7.37-3.02-15.07-5.2-22.59-7.86-26.72-9.47-54.09-12.81-82.47-11.3-20.58,1.1-41.21,5.66-61.96.83-11.49-2.68-23.14-4.68-34.71-7.05-1.08-.22-2.92-.9-2.94-1.42-.16-3.97-3.37-3.49-5.67-4.03-14.76-3.48-29.58-6.69-44.3-10.33-5.29-1.31-10.77-2.83-15.43-5.53-18.37-10.61-38.24-15.1-59.18-15.98-2.89-.12-5.76-.84-8.64-1.28.06-.29.11-.58.17-.87h27.23c0-.1.02-.2.03-.3-9.27-1.74-18.54-3.48-27.81-5.23.09-.58.18-1.16.27-1.74,7,.81,14,1.62,21,2.43-15.08-6.92-28.24-18.17-46.79-19.59,2.94-1.04,4.74-1.68,6.54-2.32-9.24-.21-18.46-3.79-27.7.82,2.25.65,4.51,1.31,7.14,2.08-1.76,1.15-3.12,2.04-4.36,2.85.39,4.37,3.35,4.59,6.5,4.89,1.85.18,4.45.41,5.33,1.62,3.83,5.28,7.44,10.62,14.3,12.48-.94.44-1.77.83-3.08,1.44,6.85,7.35,14.97,10.42,24.07,9.81-8.17,4.77-16.66,8.8-24.02,14.33-5.58,4.19-10.21,9.94-14.33,15.67-3.26,4.52-2.09,6.36,3.43,6.15,11.45-.45,22.96-.85,34.3-2.35,20.35-2.69,40.37.08,60.49,2.28-12.32,1.06-24.76.68-36.92,2.37-12.24,1.69-24.19,5.43-36.27,8.27.03.17.07.35.1.52,11.13-.64,22.27-1.28,33.4-1.92l.02.58c-10.86,2.09-21.72,4.17-32.58,6.26,10.07,1.16,20.15-1.19,29.96,2.43-8.55,1.02-17.1,2.03-24.24,2.88,11.42,1.1,24.23,1.8,36.87,3.69,12.62,1.89,25.07,4.96,37.95,7.59-12.23,1.2-24.08,1.75-35.72,3.65-14.57,2.39-28.98,5.78-43.41,8.98-2.95.65-5.65,2.4-8.46,3.64.15.27.29.53.44.8l18.98-1.69c.09.49.19.98.28,1.46-11.22,3.48-23.12,5.2-33.72,11.65,13.36-2.27,26.11-4.44,38.87-6.61l.34,1.75c-8.89,2.27-17.78,4.54-26.68,6.8.13.51.25,1.03.38,1.54,2.13-.19,4.26-.39,6.39-.56,10.85-.86,21.69-1.87,32.56-2.4,1.55-.08,4.53,2.09,4.59,3.34.22,4.15-.24,8.42-1.08,12.52-1.58,7.74-4.8,15.25-2.62,24.6,1.31-8.27,1.85-15.58,8.21-20.75.28,3.08-.18,5.99-.74,8.88-.58,3.04-1.26,6.06-1.89,9.1.21.03.43.06.64.09.88-1.58,1.75-3.16,2.94-5.3.24,2.58.41,4.34.61,6.41,2.76-2.92,5.22-5.53,7.68-8.13.46.14.91.28,1.37.42-1.73,4.85.74,6.98,4.32,9.04,1.2.69,1.24,3.74,1.42,5.75.36,3.94-.14,8.04.79,11.81,1.82,7.42,4.26,10.66,6.93,11.82,1.46-3.94,2.93-7.93,4.87-13.16,1.01,3.01,1.49,4.44,2.21,6.59,2.09-5.7,3.89-10.63,5.7-15.55l1.47.17c-6.69,28.24,7.67,48.3,25.53,68.44.36-2.28.52-3.21.64-4.13,2.08-15.67,13.3-25.63,22.92-36.56,2.17-2.46,4.13-.81,5.77,1.17,4.46,5.38,8.6,11.09,13.57,15.97,3.36,3.3,7.89,5.42,11.9,8.07.43-.48.86-.96,1.29-1.45-2.63-3.67-4.61-8.22-8.05-10.83-6.1-4.63-6.99-11.19-9.61-17.18.35-.23.7-.46,1.04-.69,1.2.86,2.4,1.72,3.92,2.81,6.52-14.95,16.42-26.66,28.57-36.63,12.03-9.87,25.73-16.71,40.36-21.94-.2-.58-.4-1.17-.6-1.75-11.08,2.42-22.16,4.84-33.25,7.27,1.81-1.6,3.77-2.89,5.92-3.58,13.6-4.37,27.12-9.04,40.9-12.78,12.18-3.3,24.71-5.3,36.97-8.33,5.12-1.27,9.95-3.73,14.91-5.64-.15-.41-.3-.82-.45-1.24-3.21.55-6.42,1.09-9.63,1.64-.07-.21-.14-.41-.22-.62l12.25-5.58c-.21-.49-.43-.98-.64-1.47-15.47,4.19-30.95,8.38-46.42,12.57-.16-.4-.32-.79-.47-1.19,1.64-.74,3.23-1.66,4.93-2.19,13.35-4.16,26.75-8.15,40.06-12.42,2.54-.81,4.76-2.61,7.12-3.96-.27-.59-.54-1.18-.8-1.77-8.53,2.25-17.05,4.5-25.58,6.76-.1-.28-.19-.55-.29-.83,6.27-2.67,12.53-5.34,19.89-8.47-2.35-1.96-4.65-3.1-4.54-3.91.62-4.61-2.32-3.88-5-3.85-4.32.04-8.64.01-12.96.01-.05-.5-.1-1-.15-1.5,1.43-.91,2.86-1.81,5.44-3.45-7.4.62-13.53,1.14-20.85,1.75,4.36-2.33,7.66-4.09,11.91-6.36-3.59,0-5.89.18-8.14-.04-3.88-.37-7.77-1.55-11.61-1.38-6.91.3-13.79,1.35-20.68,2.09-.1-.37-.19-.75-.29-1.12,3.82-1.36,7.63-2.71,11.45-4.07-2.15-.49-4.11-.25-6.08-.16-1.79.09-3.6.02-5.4.02,16.54-5.89,33.48-1.18,50.14-3.02-.86.26-1.72.51-1.78.53,9.49.95,19.58,1.82,29.63,3.01,7.22.86,14.77,1.08,21.5,3.47,11.61,4.12,22.71,9.7,34.03,14.65.27.12.63.01.92.01.64-1.24,1.26-2.44,1.88-3.64.61-.12,1.22-.23,1.83-.35,1.87,4.55,3.74,9.09,5.54,13.47Zm-142.95,107.89c4.57,3.96,9,7.06,12.53,10.96,18.97,21,37.92,42.02,56.44,63.42,9.81,11.33,13,24.83,10,39.68-.58,2.88-.73,5.85-1.08,8.78l1.3.08c5.43-12.3,6.48-24.98,2.46-38.09,2.98,3.69,5.58,7.35,8.22,10.99,11.33,15.63,23.45,30.81,30.43,49.09,1.26,3.3,6.14,7.26.09,10.87,1.68,6.54,3.26,13.11,5.11,19.61.68,2.38,2.83,4.56,2.89,6.87.38,13.82.29,27.65.51,41.47.04,2.68.78,5.34,1.19,8.01.41-.07.83-.14,1.24-.21,1.29-9.89,2.57-19.77,3.93-30.2,3.32,3.81.69,11.39,8.76,10.94,0-10.09.32-19.88-.08-29.64-.52-12.6-1.37-25.2-2.58-37.75-.47-4.86-1.73-9.83-3.62-14.34-7.52-18.01-19.16-33.43-31.36-48.46-.54-.66-1.3-1.15-1.95-1.72.75,3.79,2.22,7.08,3.48,10.46,1.22,3.27,2.34,6.58,3.3,9.93.94,3.28,1.62,6.64,2.42,9.96-16.49-20.26-32.39-40.35-47.89-60.74-14.68-19.31-26.24-40.84-43.22-58.58-8.4-8.78-9.42-20.18-4.85-31.79,1.11-2.83,1.37-6,2.03-9.02-.6-.25-1.2-.5-1.8-.75-2.95,3.22-5.9,6.44-8.85,9.67-.84-1.56-1.68-3.12-2.51-4.67-.54.23-1.09.45-1.63.68-.07,15.81,4.84,30.32,12.62,44.2-10.79-5.16-18.82-12.6-22.18-24.87-3.28,6.96-3.37,8.84-1.49,22.51-8.89-7.96-11.76-22.28-6.98-34.9,1.24-3.28,2.53-6.53,3.8-9.8-.44-.24-.89-.47-1.33-.71-2.98,3.41-5.96,6.83-9.85,11.28,1.53-4.46,2.63-7.63,4.07-11.81-9.03,3.13-10.97,10.47-14.84,16.65,1.04-5.4,2.08-10.8,3.11-16.2-.33-.34-.66-.69-1-1.03-4.74,3.45-9.94,6.43-14.14,10.44-11.4,10.87-19.55,23.79-13.95,40.01,7.25,21.02,21.94,36.12,41.98,45.86.66.32,1.54.17,2.69.28-.52-2.42-.95-4.44-1.35-6.33,1.5-.08,3.59.12,3.69-.24.37-1.31.42-2.93-.04-4.21-3.56-9.89-8.2-19.25-14.95-27.39-2.32-2.8-1.91-4.93.4-7.06,4.58,2.72,8.92,5.29,14.7,8.72-.7-4.16-1.13-6.75-1.51-9.03,5.47,2.71,11.07,5.48,16.66,8.25.28-.47.56-.94.84-1.41-1.86-2.77-3.71-5.54-5.85-8.73Zm-54.27,223.88c.68-.15,1.36-.29,2.04-.44,4.37-11.94.5-23.7-1.83-35.59,5.02,7.73,5.38,18.02,14.47,24.74,2.04-9.22.05-17.2-.56-25.14-.6-7.8-4.15-15.33-3.08-23.3.55-.11,1.09-.21,1.64-.32,1.52,6.22,3.04,12.43,4.55,18.65,4.93-5.91,5.84-12.55,5.33-19.34-.56-7.5-6.82-9.86-13.29-12.33,2.89-3.75,5.37-6.97,7.85-10.19-.28-.22-.55-.44-.83-.66-3.44,2.75-6.87,5.5-11.37,9.09.3-3.28.05-5.48.75-7.32,1.75-4.58,1.01-8.95.02-13.51-.5-2.3-.03-4.81.02-7.22.04-1.92.11-3.84.17-5.76-2.03.11-4.05.24-6.08.33-.31.01-.63-.12-.95-.19-.85-1.11-1.71-2.22-3.05-3.97-.89,1.94-1.7,3.17-2.05,4.52-3.93,15.46-8.47,30.81-11.48,46.46-3.2,16.65-5.25,33.59-2.15,50.6,1.61,8.83,4.71,17.03,11.11,24.51,0-6.15.36-11.45-.1-16.68-.46-5.16-1.76-10.25-2.69-15.37.34-.12.68-.24,1.03-.35l10.5,18.77Zm50.13-402.49c-15.46-3.03-28.06-10.12-38.06-21.89-.63-.74-1.41-1.55-2.29-1.85-7.99-2.76-13.32-8.7-18.58-14.91-4.7-5.55-9.12-11.73-14.95-15.78-4.16-2.89-6.14-5.85-7.2-10.28-.34-1.42-1.18-2.75-1.98-4.01-1.52-2.39-3.14-3.07-5.5-.64-3.96,4.07-3.45,6.6,1.25,9.72,3.5,2.32,7.02,5.19,9.34,8.63,10.37,15.4,21.88,29.62,36.44,41.4,13.87,11.21,29.64,15.91,47.13,15.8-1.58-.13-3.17-.26-4.75-.39-.02-.17-.05-.34-.07-.5,1.14-.21,2.29-.43,3.43-.64.02-.24.03-.48.05-.72-4.71-1.03-9.42-2.05-14.12-3.08.05-.29.09-.57.14-.86h9.71Zm36.79,148.58c.46,5.66.66,10.39,1.34,15.04.18,1.21,2.23,3.29,2.77,3.1,1.72-.61,4.03-1.8,4.51-3.28,2.42-7.59,4.41-15.32,6.39-23.04.38-1.48.05-3.14.05-5.65-2.78,1.9-4.52,3.09-6.26,4.28-.45-.42-.89-.84-1.34-1.26,6.25-8.82,12.49-17.64,18.74-26.46-.32-.29-.65-.59-.97-.88-2.61,1.88-5.04,4.08-7.85,5.58-10.83,5.75-16.27,16.01-21.52,26.17-1.94,3.76-1.87,8.63-2.35,13.04-.13,1.2,1.04,2.54,2.14,4.96,1.72-4.57,2.9-7.73,4.36-11.6Zm210.7-176.57c3.35,3.13,6.97,6.03,10.02,9.44,8.82,9.87,21.53,16.69,24.62,31.11.1.46.49.86.73,1.3,5.64,10.58,11.49,21.07,16.84,31.8,2.85,5.73,4.84,11.88,7.22,17.84-2.02-41.92-24.78-70.57-59.42-91.5Zm-176.6,249.04c5.77,6.06,11.56,12.14,17.58,18.46-1.19.14-2.05.24-3.02.35,5.29,9.06,14.06,15.61,20.87,14.27-6.61-9.38-12.48-18.58-19.29-27.02-3.63-4.48-7.41-11.13-16.13-6.06Zm54.4,160.65c8.87-6.79,1.72-31.42-6.21-37.7,1.84,12.69,1.52,25.27,6.21,37.7Zm-199.2-72.4c.79.08,1.58.15,2.37.23,5.09-9.77,6.92-19.92,3.54-30.74-2.11-.23-3.74-.4-5.55-.6-.91,3.04-1.79,5.99-2.74,9.14,2.05-.2,3.57-.35,5.74-.56-1.18,7.9-2.28,15.21-3.37,22.53Zm74.06-328.22c5.96,0,12.33,1.34,17.79-.31,8.61-2.61,16.62-7.23,24.88-10.99,4.23-1.93,4.46-4.69,2.57-7.26-12.6,12.87-27.58,19.07-45.24,18.56Zm10.53-47.9c3.08,3.82,10.5,6.5,13.68,4.43,2.26-1.47,4.9-4.04,5.22-6.41.48-3.53-1.82-6.5-6.48-7.18.66,9.5-7.1,7.62-12.42,9.16Zm-91.48,435.47c-.21,9.08-1.14,17.31,2.79,25.89,2.77-6.51,1.2-22.55-2.79-25.89Zm203.92-405.89c-4.27,3.71-8.58,7.45-13.46,11.68,1.86.1,3.57.74,4.59.16,4.55-2.56,10.17-4.45,8.87-11.84Zm-260.91-20.27c.24-.27.47-.55.71-.82-2.9-3.04-5.7-6.18-8.76-9.03-.63-.58-2.26-.1-3.42-.1.24.85.2,2.09.76,2.5,3.5,2.59,7.13,4.99,10.72,7.45Zm-65.1-75.36l1.14-2.45c-2.38-1.24-4.76-2.48-7.14-3.71-.39.75-.78,1.51-1.17,2.26,2.39,1.3,4.78,2.6,7.18,3.9Zm267.16,127.93c.32.8.64,1.6.96,2.4,3.68-1.84,7.35-3.67,11.03-5.51-.24-.54-.48-1.07-.72-1.61-3.76,1.57-7.51,3.14-11.27,4.72Zm-236.43-123.83c-.34.54-.68,1.08-1.02,1.62,1.44,1.14,2.76,2.58,4.4,3.27.66.28,2.01-1.09,4.28-2.44-3.58-1.15-5.62-1.8-7.66-2.45Z"/><path d="m587.3,185.91c8.29,7.85,16.58,15.71,24.87,23.56-.26.37-.53.74-.79,1.11-1.35-.88-2.72-1.72-4.04-2.64-19.06-13.21-38.9-24.97-60.52-33.61-6.62-2.65-12.85-6.27-19.36-9.22-1.11-.5-3.97-3.21-3.4,1.1-14.57-5.66-28.95-11.25-43.34-16.83,42.02,8.17,82.66,21.87,124.64,32.14-2.2-3.38-4.21-6.48-6.23-9.58.27-.28.55-.56.82-.84,3.69,3.23,7.38,6.47,11.08,9.7.2-.13.41-.26.61-.39-.85-1.44-1.7-2.88-2.56-4.33.34-.13.72-.33.75-.28,10.17,14.49,26.36,21,40.36,30.4,6.29,4.22,12.65,8.35,18.97,12.52-.23.37-.46.73-.69,1.1l-34.77-20.23c-.24.38-.49.76-.73,1.14,3.47,2.67,6.93,5.34,10.4,8.01-.11.15-.21.29-.32.44-18.36-8.27-36.71-16.55-55.07-24.82-.23.52-.45,1.03-.68,1.55Z"/><path d="m740.62,263.09c-17.53-12.49-36.54-26.76-56.31-39.9-17.86-11.87-36.55-22.49-54.87-33.66-6.36-3.87-13.11-7.31-16.39-14.95,8.96,5.54,17.61,11.09,26.45,16.33,28.5,16.9,57.16,33.56,82.51,55.13,7,5.96,13.58,12.42,18.62,17.04Z"/><path d="m432.65,150.97c-3.54-1.52-6.2-2.75-8.93-3.8-2.68-1.03-5.44-1.86-8.03-3.15,6.54-.91,12.76-.95,16.96,6.95Z"/><path class="cls-1" d="m746.3,494.79c-1.8-4.38-3.67-8.93-5.54-13.47-.61.12-1.22.23-1.83.35-.62,1.2-1.24,2.4-1.88,3.64-.29,0-.65.1-.92-.01-11.32-4.95-22.41-10.54-34.03-14.65-6.73-2.39-14.28-2.62-21.5-3.47-10.05-1.19-20.13-2.06-29.63-3.01.06-.02.92-.27,1.78-.53-16.66,1.85-33.6-2.86-50.14,3.02,1.8,0,3.6.07,5.4-.02,1.97-.09,3.94-.33,6.08.16-3.82,1.36-7.63,2.71-11.45,4.07.1.37.19.75.29,1.12,6.89-.74,13.77-1.78,20.68-2.09,3.84-.17,7.72,1.01,11.61,1.38,2.26.22,4.55.04,8.14.04-4.25,2.27-7.55,4.03-11.91,6.36,7.32-.61,13.44-1.13,20.85-1.75-2.58,1.64-4.01,2.54-5.44,3.45.05.5.1,1,.15,1.5,4.32,0,8.64.03,12.96-.01,2.68-.02,5.62-.76,5,3.85-.11.81,2.18,1.95,4.54,3.91-7.35,3.13-13.62,5.8-19.89,8.47.1.28.19.55.29.83,8.53-2.25,17.05-4.5,25.58-6.76.27.59.54,1.18.8,1.77-2.37,1.35-4.59,3.15-7.12,3.96-13.31,4.27-26.71,8.27-40.06,12.42-1.71.53-3.29,1.45-4.93,2.19.16.4.32.79.47,1.19,15.47-4.19,30.95-8.38,46.42-12.57.21.49.43.98.64,1.47l-12.25,5.58c.07.21.14.41.22.62,3.21-.55,6.42-1.09,9.63-1.64.15.41.3.82.45,1.24-4.96,1.92-9.79,4.38-14.91,5.64-12.26,3.03-24.79,5.03-36.97,8.33-13.78,3.74-27.3,8.4-40.9,12.78-2.15.69-4.11,1.98-5.92,3.58,11.08-2.42,22.16-4.84,33.25-7.27.2.58.4,1.17.6,1.75-14.63,5.23-28.34,12.07-40.36,21.94-12.15,9.98-22.05,21.69-28.57,36.63-1.53-1.1-2.73-1.95-3.92-2.81-.35.23-.7.46-1.04.69,2.62,5.99,3.5,12.55,9.61,17.18,3.44,2.61,5.41,7.15,8.05,10.83-.43.48-.86.96-1.29,1.45-4.01-2.65-8.54-4.76-11.9-8.07-4.96-4.88-9.1-10.59-13.57-15.97-1.64-1.98-3.6-3.63-5.77-1.17-9.62,10.93-20.84,20.89-22.92,36.56-.12.93-.29,1.85-.64,4.13-17.86-20.14-32.21-40.21-25.53-68.44l-1.47-.17c-1.8,4.93-3.61,9.85-5.7,15.55-.72-2.14-1.2-3.57-2.21-6.59-1.94,5.23-3.41,9.21-4.87,13.16-2.67-1.16-5.1-4.4-6.93-11.82-.93-3.77-.42-7.88-.79-11.81-.18-2.01-.23-5.06-1.42-5.75-3.59-2.07-6.06-4.19-4.32-9.04-.46-.14-.91-.28-1.37-.42-2.46,2.61-4.92,5.21-7.68,8.13-.2-2.07-.36-3.83-.61-6.41-1.19,2.14-2.06,3.72-2.94,5.3-.21-.03-.43-.06-.64-.09.63-3.03,1.31-6.05,1.89-9.1.56-2.89,1.02-5.8.74-8.88-6.35,5.16-6.9,12.48-8.21,20.75-2.18-9.35,1.04-16.87,2.62-24.6.84-4.1,1.3-8.37,1.08-12.52-.07-1.25-3.04-3.41-4.59-3.34-10.87.53-21.71,1.54-32.56,2.4-2.13.17-4.26.37-6.39.56-.13-.51-.25-1.03-.38-1.54,8.89-2.27,17.78-4.54,26.68-6.8l-.34-1.75c-12.75,2.17-25.5,4.33-38.87,6.61,10.6-6.44,22.5-8.17,33.72-11.65-.09-.49-.19-.98-.28-1.46l-18.98,1.69c-.15-.27-.29-.53-.44-.8,2.82-1.24,5.52-2.98,8.46-3.64,14.42-3.2,28.84-6.6,43.41-8.98,11.64-1.9,23.49-2.46,35.72-3.65-12.88-2.63-25.33-5.7-37.95-7.59-12.64-1.89-25.45-2.59-36.87-3.69,7.14-.85,15.69-1.86,24.24-2.88-9.82-3.63-19.89-1.27-29.96-2.43,10.86-2.09,21.72-4.17,32.58-6.26l-.02-.58c-11.13.64-22.27,1.28-33.4,1.92-.03-.17-.07-.35-.1-.52,12.08-2.84,24.03-6.57,36.27-8.27,12.16-1.68,24.61-1.31,36.92-2.37-20.12-2.2-40.14-4.97-60.49-2.28-11.34,1.5-22.85,1.9-34.3,2.35-5.52.22-6.69-1.63-3.43-6.15,4.13-5.72,8.76-11.48,14.33-15.67,7.36-5.53,15.85-9.56,24.02-14.33-9.1.61-17.22-2.46-24.07-9.81,1.31-.61,2.14-1,3.08-1.44-6.87-1.85-10.47-7.19-14.3-12.48-.88-1.21-3.48-1.44-5.33-1.62-3.15-.3-6.11-.53-6.5-4.89,1.24-.81,2.6-1.7,4.36-2.85-2.64-.77-4.89-1.42-7.14-2.08,9.24-4.61,18.46-1.03,27.7-.82-1.8.64-3.6,1.28-6.54,2.32,18.56,1.42,31.71,12.67,46.79,19.59-7-.81-14-1.62-21-2.43-.09.58-.18,1.16-.27,1.74,9.27,1.74,18.54,3.48,27.81,5.23,0,.1-.02.2-.03.3h-27.23c-.06.29-.11.58-.17.87,2.88.44,5.75,1.16,8.64,1.28,20.94.88,40.81,5.37,59.18,15.98,4.66,2.69,10.14,4.22,15.43,5.53,14.72,3.64,29.54,6.85,44.3,10.33,2.3.54,5.52.06,5.67,4.03.02.52,1.86,1.2,2.94,1.42,11.57,2.37,23.22,4.38,34.71,7.05,20.75,4.83,41.37.27,61.96-.83,28.38-1.51,55.75,1.83,82.47,11.3,7.52,2.66,15.22,4.84,22.59,7.86,9.09,3.72,12.39,10.97,10.01,19.5Z"/><path class="cls-1" d="m681.57,423.39c4.04-.59,8.09-1.17,12.76-1.85-.95,1.42-1.56,2.32-2.14,3.18,4.57,2.03,6.7,9.04,14.03,5.34-.09.55-.18,1.1-.27,1.64-1.31.91-2.61,1.82-4.74,3.31,4.58-.78,8.19-1.4,11.79-2.02.2.54.39,1.07.59,1.61l-5.36,3.2.5,1.14c4.42-1.89,8.79-3.92,13.29-5.58,1.24-.46,3.5-.37,4.18.42.91,1.07.75,3.06,1.14,5.16,1.52-.61,3.87-1.56,7.14-2.88-1.01,2-1.61,3.2-2.57,5.11,2.44-.94,4.36-1.68,5.27-2.04,7.97,4.21,15.18.1,22.52.72-4.53,2.11-9.06,4.21-14.85,6.91,2.92.91,4.46,1.39,6.68,2.08-1.38,1.02-2.15,1.91-3.12,2.24-11.86,4.1-23.64,7.55-36.54,4.05-5.04-1.37-10.74-.16-16.13-.4-6.41-.28-12.79-1.11-19.2-1.24-13.1-.28-26.22-.58-39.32-.26-13.95.35-27.88,1.41-41.82,2.16-.04-.46-.07-.93-.11-1.39,2.11-.14,4.21-.28,6-.4-3.46-.78-7.21-1.63-11.16-2.53,8.9-1.14,17.52-2.02,26.06-3.4,8.64-1.4,17.36-2.86,24.44-9.1-1.13.26-2.31.4-3.4.79-22.28,7.94-44.88,8.39-67.8,3.14-11.35-2.6-22.78-4.84-34.16-7.3-9.53-2.06-19.03-4.32-28.58-6.25-3.92-.79-8.11-1.52-10.49,3.29-.19.38-1.51.41-2.24.27-5.87-1.11-11.96-1.65-17.54-3.62-6.33-2.25-12.24-5.71-18.25-8.81-17.58-9.07-36.26-16.17-51.82-28.86-4-3.26-8.12-6.39-12.02-9.77-1.51-1.31-2.56-3.15-4.21-5.23,1.85-.5,2.75-.93,3.66-.96,5.74-.21,11.48-.54,17.21-.39,1.98.05,4.16,1.02,5.86,2.15,9.57,6.36,19,12.92,28.53,19.34,1.9,1.28,4.04,2.21,6.69,2.56-1.83-1.45-3.7-2.86-5.49-4.36-4.71-3.97-9.46-7.91-14.06-12-2.03-1.81-3.53-3.43-2.9-7.11.54-3.16-1.8-6.89-3.15-10.27-1.84-4.62-.93-6.39,3.82-5.09,10.35,2.83,20.59,6.15,30.68,9.79,5.55,2.01,10.87,4.81,16,7.77,4.5,2.6,8.58,5.92,13.58,8.1-6.23-6.25-12.49-12.47-18.67-18.77-3.49-3.56-7.16-7.02-10.09-11.01-1.11-1.51-1.29-5.25-.2-6.44,1.36-1.49,4.76-2.4,6.74-1.79,4.25,1.29,8.07,3.93,12.24,5.59,2.72,1.08,5.73,1.41,8.61,2.08l.63-1.35c24.47,22.93,48.93,45.86,73.06,68.47-18.14-5.19-35.31-14.16-52.09-24.38,2.78,2.23,5.33,4.88,8.39,6.6,11.88,6.66,23.99,12.9,35.88,19.53,11.79,6.57,24.47,10.24,37.72,12.05,3.74.51,7.6.11,11.41.12,2.08,0,4.15,0,7.31,0-3.53,1.58-5.96,2.67-8.39,3.76.08.35.16.71.24,1.06,4.26-.75,8.51-1.54,12.77-2.23,1.43-.23,2.92-.4,4.34-.23,1.64.2,3.49,1.56,4.8,1.12,6.48-2.21,12.82-4.84,19.2-7.35.11-.04.14-.29.19-.43-.23,2.98,1.52,2.73,3.47,2.13,3.47-1.07,6.94-2.16,10.41-3.24h.04c-.67,1.41-1.33,2.83-2.29,4.87,9.22-1.86,17.46-5.01,25.16-9.54.46-.27.1-1.96.12-2.98Zm6.02,7.98c-.35-.32-.71-.64-1.06-.96.4-.9.8-1.81,1.48-3.35-7.55,2.74-14.5,5.26-21.45,7.78.13.37.26.74.39,1.12,1.87-.49,3.73-.98,5.6-1.47.67,4.04,7.22,2.67,15.04-3.12Zm-136-16.36c-13.07-9.94-25.29-19.23-37.52-28.53,10.54,11.54,22.49,21.2,37.52,28.53Z"/><path class="cls-1" d="m354.82,651.9c-1.51.51-3.02,1.01-4.96,1.66,10.32-15.79,43.02-25.06,72.97-20.7-1.57.1-3.14.21-5.78.38,1.9.7,2.84,1.05,4.59,1.7-1.87.76-2.99,1.22-5.17,2.1,3.17.95,5.44,1.62,7.7,2.3.05.28.11.57.16.85-3.6.76-7.28,1.29-10.78,2.39-1.87.59-3.42,2.18-5.11,3.31,1.56,1.19,2.97,2.68,4.7,3.5,2.77,1.3,5.75,2.16,8.64,3.2-.02.47-.05.95-.07,1.42-4.42.73-8.83,1.46-14.78,2.44,2.78,1.71,4.32,2.65,7.28,4.47-7.2,2.45-13.47,4.59-19.75,6.72,0,.49-.01.98-.02,1.47,2.09.96,4.19,1.92,6.7,3.07-1.03,1.12-1.94,2.1-2.84,3.08.16.32.24.69.46.88,4.31,3.73,3.74,5.66-2.03,8.12-14.63,6.24-28.48,13.86-39.51,25.53-3.64,3.85-6.57,8.73-8.65,13.64-10.05,23.74-19.71,47.64-29.48,71.49-3.12,7.62-6.16,15.27-9.33,23.15-8.97-10.34-12.91-22.84-13.34-36.71-.45,7.25-.9,14.5-1.34,21.75-.34.06-.68.11-1.02.17-1.69-7.71-3.57-15.38-5.02-23.13-5.17-27.62,1.03-53.86,10.02-79.73.71-2.04,1.68-3.99,2.38-6.03,1.69-4.93,3.7-9.11,10.08-9.36,1.85-.07,4.07-2.34,5.32-4.15,2.96-4.29,5.44-8.9,9.03-13.1,1.39,9.21-1.55,17.85-2.51,25.7,10.17-13.54,20.75-27.61,31.34-41.69,11.16-4.48,22.32-8.97,33.47-13.45-2.5.24-5.07.63-7.47,1.48-9.01,3.2-18.57,5.24-25.88,12.07Z"/><path class="cls-1" d="m603.35,602.68c2.14,3.19,3.99,5.96,5.85,8.73-.28.47-.56.94-.84,1.41-5.6-2.77-11.19-5.54-16.66-8.25.38,2.28.82,4.87,1.51,9.03-5.78-3.43-10.11-6-14.7-8.72-2.31,2.13-2.73,4.26-.4,7.06,6.75,8.14,11.38,17.49,14.95,27.39.46,1.28.41,2.9.04,4.21-.1.36-2.19.17-3.69.24.4,1.89.84,3.9,1.35,6.33-1.15-.1-2.03.04-2.69-.28-20.05-9.74-34.73-24.84-41.98-45.86-5.6-16.23,2.56-29.15,13.95-40.01,4.21-4.01,9.4-6.99,14.14-10.44.33.34.66.69,1,1.03-1.04,5.4-2.08,10.8-3.11,16.2,3.87-6.18,5.81-13.52,14.84-16.65-1.44,4.19-2.53,7.36-4.07,11.81,3.89-4.46,6.87-7.87,9.85-11.28.44.24.89.47,1.33.71-1.27,3.27-2.56,6.52-3.8,9.8-4.79,12.62-1.92,26.95,6.98,34.9-1.88-13.68-1.78-15.55,1.49-22.51,3.36,12.27,11.39,19.72,22.18,24.87-7.78-13.88-12.7-28.4-12.62-44.2.54-.23,1.09-.45,1.63-.68.84,1.56,1.68,3.12,2.52,4.67,2.95-3.22,5.9-6.44,8.85-9.66.6.25,1.2.5,1.8.75-.65,3.02-.91,6.19-2.03,9.02-4.56,11.61-3.55,23.02,4.85,31.79,16.98,17.74,28.54,39.28,43.22,58.58,15.5,20.39,31.4,40.48,47.89,60.74-.8-3.32-1.48-6.68-2.42-9.96-.96-3.35-2.08-6.67-3.3-9.93-1.26-3.37-2.73-6.67-3.48-10.46.66.57,1.41,1.06,1.95,1.72,12.2,15.03,23.84,30.45,31.36,48.46,1.88,4.51,3.15,9.48,3.62,14.34,1.21,12.55,2.06,25.15,2.58,37.75.4,9.76.08,19.55.08,29.64-8.07.45-5.44-7.13-8.76-10.94-1.36,10.42-2.64,20.31-3.93,30.2-.41.07-.83.14-1.24.21-.41-2.67-1.15-5.34-1.19-8.01-.22-13.82-.13-27.65-.51-41.47-.06-2.31-2.21-4.48-2.89-6.87-1.85-6.49-3.42-13.06-5.11-19.61,6.06-3.62,1.17-7.57-.09-10.87-6.98-18.28-19.09-33.46-30.43-49.09-2.64-3.64-5.24-7.3-8.22-10.99,4.02,13.12,2.96,25.79-2.46,38.09l-1.3-.08c.35-2.93.49-5.9,1.08-8.78,3-14.85-.2-28.35-10-39.68-18.52-21.39-37.48-42.41-56.44-63.42-3.53-3.91-7.95-7.01-12.53-10.96Z"/><path class="cls-1" d="m549.09,826.56l-10.5-18.77c-.34.12-.68.24-1.03.35.93,5.12,2.23,10.21,2.69,15.37.47,5.23.1,10.53.1,16.68-6.39-7.49-9.5-15.68-11.11-24.51-3.1-17.01-1.05-33.94,2.15-50.6,3.01-15.64,7.55-30.99,11.48-46.46.34-1.35,1.15-2.58,2.05-4.52,1.34,1.75,2.2,2.86,3.05,3.97.32.07.64.2.95.18,2.03-.09,4.05-.22,6.08-.33-.06,1.92-.13,3.84-.17,5.76-.05,2.41-.52,4.92-.02,7.22.99,4.56,1.73,8.93-.02,13.51-.7,1.83-.45,4.03-.75,7.32,4.5-3.6,7.93-6.35,11.37-9.09.28.22.55.44.83.66-2.48,3.22-4.96,6.44-7.85,10.19,6.47,2.48,12.72,4.84,13.29,12.33.51,6.79-.4,13.43-5.33,19.34-1.52-6.22-3.04-12.43-4.55-18.65-.55.11-1.09.21-1.64.32-1.07,7.97,2.48,15.5,3.08,23.3.61,7.94,2.59,15.92.56,25.14-9.09-6.73-9.45-17.02-14.47-24.74,2.33,11.89,6.2,23.65,1.83,35.59-.68.15-1.36.29-2.04.44Z"/><path class="cls-1" d="m599.22,424.07h-9.71c-.05.29-.09.57-.14.86,4.71,1.03,9.42,2.05,14.12,3.08-.02.24-.03.48-.05.72-1.14.21-2.29.43-3.43.64.02.17.05.34.07.5,1.58.13,3.17.26,4.75.39-17.5.1-33.26-4.59-47.13-15.8-14.57-11.77-26.07-26-36.44-41.4-2.31-3.43-5.84-6.31-9.34-8.63-4.7-3.11-5.21-5.65-1.25-9.72,2.37-2.43,3.98-1.76,5.5.64.8,1.26,1.64,2.59,1.98,4.01,1.06,4.43,3.04,7.39,7.2,10.28,5.83,4.05,10.25,10.23,14.95,15.78,5.25,6.2,10.59,12.14,18.58,14.91.88.3,1.66,1.11,2.29,1.85,10,11.78,22.6,18.87,38.06,21.89Z"/><path class="cls-1" d="m636.01,572.65c-1.45,3.87-2.64,7.03-4.36,11.6-1.1-2.43-2.27-3.77-2.14-4.96.49-4.4.41-9.28,2.35-13.04,5.25-10.16,10.68-20.42,21.52-26.17,2.81-1.49,5.25-3.7,7.85-5.58.32.29.65.59.97.88-6.25,8.82-12.49,17.64-18.74,26.46.45.42.89.84,1.34,1.26,1.74-1.19,3.49-2.38,6.26-4.28,0,2.51.33,4.17-.05,5.65-1.98,7.72-3.96,15.45-6.39,23.04-.47,1.48-2.79,2.67-4.51,3.28-.53.19-2.59-1.89-2.77-3.1-.68-4.65-.88-9.37-1.34-15.04Z"/><path class="cls-1" d="m846.7,396.07c34.64,20.92,57.4,49.58,59.42,91.5-2.38-5.96-4.37-12.12-7.22-17.84-5.35-10.73-11.2-21.21-16.84-31.8-.23-.44-.63-.84-.73-1.3-3.08-14.41-15.79-21.24-24.62-31.11-3.05-3.41-6.66-6.31-10.02-9.44Z"/><path class="cls-1" d="m670.1,645.12c8.73-5.07,12.51,1.58,16.13,6.06,6.82,8.43,12.68,17.63,19.29,27.02-6.81,1.34-15.58-5.21-20.87-14.27.96-.11,1.82-.21,3.02-.35-6.02-6.32-11.81-12.4-17.58-18.46Z"/><path class="cls-1" d="m724.5,805.77c-4.69-12.44-4.37-25.01-6.21-37.7,7.93,6.28,15.08,30.92,6.21,37.7Z"/><path class="cls-1" d="m525.3,733.37c1.09-7.31,2.19-14.63,3.37-22.53-2.17.21-3.69.36-5.74.56.94-3.16,1.83-6.1,2.74-9.14,1.81.19,3.43.37,5.55.6,3.38,10.82,1.54,20.97-3.54,30.74-.79-.08-1.58-.15-2.37-.23Z"/><path class="cls-1" d="m599.37,405.16c17.66.5,32.64-5.69,45.24-18.56,1.88,2.57,1.66,5.33-2.57,7.26-8.26,3.77-16.26,8.39-24.88,10.99-5.46,1.65-11.83.31-17.79.31Z"/><path class="cls-1" d="m609.89,357.26c5.32-1.54,13.08.34,12.42-9.16,4.66.68,6.97,3.65,6.48,7.18-.33,2.37-2.96,4.94-5.22,6.41-3.18,2.07-10.6-.61-13.68-4.43Z"/><path d="m681.57,423.39c-.02,1.03.34,2.71-.12,2.98-7.71,4.53-15.94,7.68-25.16,9.54.96-2.04,1.62-3.46,2.29-4.88,5.23-2.15,10.45-4.33,15.69-6.45,1.51-.61,3.07-1.09,4.61-1.63.84.2,1.68.4,2.51.6,0,0,.22-.11.22-.11l-.04-.05Z"/><path class="cls-1" d="m678.87,422.95c-1.54.54-3.1,1.02-4.61,1.63-5.24,2.13-10.46,4.3-15.69,6.45,0,0-.04.01-.04.01,2.49-1.64,5.07-3.16,7.43-4.96,1.02-.78,1.59-2.14,2.36-3.23,2.7-1.41,5.33-2.96,8.11-4.2,2.94-1.32,6.02-2.35,9.03-3.51.37.55.74,1.11,1.1,1.66-2.57,2.05-5.13,4.1-7.7,6.15Z"/><path class="cls-1" d="m731.32,405.17c-3.96,1.68-7.92,3.36-11.88,5.05-.33-.74-.65-1.48-.98-2.23,7.72-4.56,15.44-9.12,23.16-13.67.31.48.62.96.93,1.44-1.56,1.82-3.12,3.64-4.67,5.45-2.18,1.32-4.37,2.64-6.55,3.96Z"/><path class="cls-1" d="m518.41,792.73c3.99,3.34,5.55,19.38,2.79,25.89-3.93-8.59-3-16.81-2.79-25.89Z"/><path class="cls-1" d="m726.89,396.45c-4.41,2.79-8.82,5.57-13.24,8.36-.36-.52-.72-1.03-1.08-1.55,4.75-5.59,10.78-9.42,19.04-12.34-.92,1.84-1.36,2.71-1.78,3.57-.97.65-1.96,1.3-2.95,1.96Z"/><path d="m668.33,422.85c-.77,1.09-1.34,2.46-2.36,3.23-2.36,1.8-4.94,3.33-7.43,4.96-3.47,1.08-6.94,2.17-10.41,3.24-1.95.6-3.7.86-3.47-2.13,7.9-3.11,15.79-6.21,23.67-9.3Z"/><path class="cls-1" d="m731.32,405.17c2.19-1.32,4.37-2.64,6.55-3.96,2.24-1.08,4.49-2.17,6.73-3.25l.88,1.33-9.47,8.66.17-.17c-1.84.16-3.68.31-5.52.47.22-1.02.43-2.05.65-3.07Z"/><path class="cls-1" d="m722.33,386.83c1.3,7.4-4.32,9.29-8.87,11.84-1.02.58-2.73-.06-4.59-.16,4.88-4.24,9.19-7.98,13.46-11.68Z"/><path class="cls-1" d="m461.42,366.57c-3.59-2.46-7.22-4.87-10.72-7.45-.56-.42-.52-1.65-.76-2.5,1.17,0,2.79-.48,3.42.1,3.07,2.85,5.87,5.99,8.76,9.03-.24.27-.47.55-.71.82Z"/><path class="cls-1" d="m736.02,407.94c.96.11,1.91.23,2.89.34-1.94,6.01-6.57,9.04-10.74,7.05,2.69-2.53,5.35-5.04,8.01-7.55,0,0-.17.16-.17.16Z"/><path class="cls-1" d="m726.89,396.45c.99-.66,1.97-1.31,2.95-1.96,1.96-1.56,3.93-3.12,5.9-4.69.44.54.87,1.09,1.31,1.63-3.77,3.02-7.55,6.05-11.32,9.07-.35-.29-.7-.59-1.06-.88.74-1.06,1.48-2.12,2.22-3.18Z"/><path class="cls-1" d="m396.32,291.2c-2.39-1.3-4.78-2.6-7.18-3.9.39-.75.78-1.51,1.17-2.26,2.38,1.24,4.76,2.48,7.14,3.71l-1.14,2.45Z"/><path class="cls-1" d="m663.48,419.13c3.76-1.57,7.51-3.14,11.27-4.72.24.54.48,1.07.72,1.61-3.68,1.84-7.35,3.67-11.03,5.51-.32-.8-.64-1.6-.96-2.4Z"/><path class="cls-1" d="m427.05,295.3c2.04.65,4.07,1.3,7.66,2.45-2.27,1.35-3.62,2.71-4.28,2.44-1.63-.69-2.95-2.13-4.4-3.27.34-.54.68-1.08,1.02-1.62Z"/><path d="m681.61,423.44s-.22.11-.22.11c0,0,.22-.11.22-.11Z"/><path d="m687.59,431.38c-7.82,5.79-14.37,7.16-15.04,3.12-1.87.49-3.74.98-5.6,1.47-.13-.37-.26-.74-.39-1.12,6.95-2.52,13.9-5.05,21.45-7.78-.68,1.54-1.08,2.44-1.48,3.35.35.32.71.64,1.06.96Z"/><path d="m551.59,415.01c-15.03-7.32-26.98-16.99-37.52-28.53,12.22,9.3,24.45,18.59,37.52,28.53Z"/><path d="m354.82,651.9c7.31-6.83,16.88-8.88,25.88-12.07,2.4-.85,4.97-1.24,7.47-1.48-11.15,4.49-22.31,8.97-33.47,13.45,0,0,.12.11.12.11Z"/></svg>